{"glyphs":{"0":{"ha":668,"x_min":56,"x_max":613,"o":"m 533 972 l 611 817 l 611 156 l 533 0 l 133 0 l 56 156 l 56 817 l 133 972 l 533 972 m 211 156 l 456 156 l 456 817 l 211 817 l 211 156 z "},"1":{"ha":422,"x_min":56,"x_max":367,"o":"m 289 156 l 367 156 l 367 0 l 56 0 l 56 156 l 133 156 l 133 750 l 56 672 l 56 892 l 136 972 l 289 972 l 289 156 z "},"2":{"ha":668,"x_min":56,"x_max":613,"o":"m 533 408 l 211 408 l 211 156 l 456 156 l 456 233 l 611 233 l 611 0 l 56 0 l 56 408 l 133 564 l 456 564 l 456 817 l 250 817 l 211 739 l 56 739 l 56 817 l 133 972 l 533 972 l 611 817 l 611 564 l 533 408 z "},"3":{"ha":668,"x_min":56,"x_max":613,"o":"m 611 817 l 611 564 l 533 486 l 611 408 l 611 156 l 533 0 l 133 0 l 56 156 l 56 233 l 211 233 l 250 156 l 456 156 l 456 408 l 211 408 l 211 564 l 456 564 l 456 817 l 250 817 l 211 739 l 56 739 l 56 817 l 133 972 l 533 972 l 611 817 z "},"4":{"ha":649,"x_min":56,"x_max":593,"o":"m 56 561 l 358 968 l 363 972 l 514 972 l 514 564 l 592 564 l 592 408 l 514 408 l 514 0 l 358 0 l 358 408 l 56 408 l 56 561 m 358 564 l 358 707 l 251 564 l 358 564 z "},"5":{"ha":668,"x_min":56,"x_max":613,"o":"m 611 739 l 456 739 l 456 817 l 211 817 l 211 564 l 533 564 l 611 408 l 611 156 l 533 0 l 133 0 l 56 156 l 56 233 l 211 233 l 250 156 l 456 156 l 456 408 l 56 408 l 56 972 l 611 972 l 611 739 z "},"6":{"ha":668,"x_min":56,"x_max":613,"o":"m 417 817 l 211 817 l 211 564 l 533 564 l 611 408 l 611 156 l 533 0 l 133 0 l 56 156 l 56 817 l 133 972 l 533 972 l 611 817 l 611 739 l 456 739 l 417 817 m 456 408 l 211 408 l 211 156 l 456 156 l 456 408 z "},"7":{"ha":661,"x_min":56,"x_max":606,"o":"m 56 0 l 432 817 l 57 817 l 57 972 l 606 972 l 606 822 l 226 0 l 56 0 z "},"8":{"ha":668,"x_min":56,"x_max":613,"o":"m 611 817 l 611 564 l 533 486 l 611 408 l 611 156 l 533 0 l 133 0 l 56 156 l 56 408 l 133 486 l 56 564 l 56 817 l 133 972 l 533 972 l 611 817 m 456 156 l 456 408 l 211 408 l 211 156 l 456 156 m 456 564 l 456 817 l 211 817 l 211 564 l 456 564 z "},"9":{"ha":668,"x_min":56,"x_max":613,"o":"m 533 972 l 611 817 l 611 156 l 533 0 l 133 0 l 56 156 l 56 233 l 211 233 l 250 156 l 456 156 l 456 408 l 133 408 l 56 564 l 56 817 l 133 972 l 533 972 m 211 564 l 456 564 l 456 817 l 211 817 l 211 564 z "},"\u000b":{"ha":732,"x_min":69,"x_max":663,"o":"m 69 972 l 663 972 l 663 0 l 69 0 l 69 972 m 108 944 l 365 515 l 624 944 l 108 944 m 349 486 l 99 903 l 99 68 l 349 486 m 367 457 l 110 29 l 624 29 l 367 457 m 383 486 l 635 65 l 635 906 l 383 486 z "},"\u0000":{"ha":0,"x_min":0,"x_max":0,"o":""},"\n":{"ha":0,"x_min":0,"x_max":0,"o":""},"\r":{"ha":0,"x_min":0,"x_max":0,"o":""}," ":{"ha":357,"x_min":0,"x_max":0,"o":""},"!":{"ha":267,"x_min":56,"x_max":211,"o":"m 211 233 l 56 233 l 56 972 l 211 972 l 211 233 m 211 0 l 56 0 l 56 156 l 211 156 l 211 0 z "},".":{"ha":267,"x_min":56,"x_max":211,"o":"m 211 0 l 56 0 l 56 156 l 211 156 l 211 0 z "},"?":{"ha":668,"x_min":56,"x_max":613,"o":"m 533 972 l 611 817 l 611 564 l 533 408 l 411 408 l 411 233 l 256 233 l 256 564 l 456 564 l 456 817 l 211 817 l 211 739 l 56 739 l 56 817 l 133 972 l 533 972 m 411 0 l 256 0 l 256 156 l 411 156 l 411 0 z "},"A":{"ha":668,"x_min":56,"x_max":613,"o":"m 533 972 l 611 817 l 611 0 l 456 0 l 456 408 l 211 408 l 211 0 l 56 0 l 56 817 l 133 972 l 533 972 m 456 564 l 456 817 l 211 817 l 211 564 l 456 564 z "},"B":{"ha":668,"x_min":56,"x_max":613,"o":"m 611 817 l 611 564 l 533 486 l 611 408 l 611 156 l 533 0 l 56 0 l 56 972 l 533 972 l 611 817 m 456 156 l 456 408 l 211 408 l 211 156 l 456 156 m 456 564 l 456 817 l 211 817 l 211 564 l 456 564 z "},"C":{"ha":668,"x_min":56,"x_max":613,"o":"m 417 817 l 211 817 l 211 156 l 417 156 l 456 233 l 611 233 l 611 156 l 533 0 l 133 0 l 56 156 l 56 817 l 133 972 l 533 972 l 611 817 l 611 739 l 456 739 l 417 817 z "},"D":{"ha":668,"x_min":56,"x_max":613,"o":"m 533 972 l 611 817 l 611 156 l 533 0 l 56 0 l 56 972 l 533 972 m 456 156 l 456 817 l 211 817 l 211 156 l 456 156 z "},"E":{"ha":668,"x_min":56,"x_max":613,"o":"m 417 817 l 211 817 l 211 564 l 456 564 l 456 408 l 211 408 l 211 156 l 417 156 l 456 233 l 611 233 l 611 156 l 533 0 l 56 0 l 56 972 l 533 972 l 611 817 l 611 739 l 456 739 l 417 817 z "},"F":{"ha":668,"x_min":56,"x_max":613,"o":"m 533 972 l 611 817 l 611 739 l 456 739 l 417 817 l 211 817 l 211 564 l 456 564 l 456 408 l 211 408 l 211 0 l 56 0 l 56 972 l 533 972 z "},"G":{"ha":668,"x_min":56,"x_max":613,"o":"m 417 817 l 211 817 l 211 156 l 456 156 l 456 408 l 378 408 l 378 564 l 611 564 l 611 156 l 533 0 l 133 0 l 56 156 l 56 817 l 133 972 l 533 972 l 611 817 l 611 739 l 456 739 l 417 817 z "},"H":{"ha":668,"x_min":56,"x_max":613,"o":"m 456 972 l 611 972 l 611 0 l 456 0 l 456 408 l 211 408 l 211 0 l 56 0 l 56 972 l 211 972 l 211 564 l 456 564 l 456 972 z "},"I":{"ha":669,"x_min":56,"x_max":614,"o":"m 411 156 l 613 156 l 613 0 l 57 0 l 57 156 l 256 156 l 256 817 l 56 817 l 56 972 l 611 972 l 611 817 l 411 817 l 411 156 z "},"J":{"ha":668,"x_min":56,"x_max":613,"o":"m 456 972 l 611 972 l 611 156 l 533 0 l 133 0 l 56 156 l 56 233 l 211 233 l 250 156 l 456 156 l 456 972 z "},"K":{"ha":668,"x_min":56,"x_max":613,"o":"m 611 972 l 324 404 l 611 0 l 421 0 l 211 294 l 211 0 l 56 0 l 56 972 l 211 972 l 211 563 l 221 547 l 438 972 l 611 972 z "},"L":{"ha":668,"x_min":56,"x_max":613,"o":"m 211 156 l 611 156 l 611 0 l 56 0 l 56 972 l 211 972 l 211 156 z "},"M":{"ha":753,"x_min":54,"x_max":697,"o":"m 538 972 l 697 972 l 697 0 l 542 0 l 542 350 l 457 14 l 454 0 l 300 0 l 297 14 l 211 358 l 211 0 l 56 0 l 56 972 l 218 972 l 378 335 l 538 972 z "},"N":{"ha":668,"x_min":56,"x_max":613,"o":"m 456 972 l 611 972 l 611 0 l 465 0 l 211 569 l 211 0 l 56 0 l 56 972 l 203 972 l 456 403 l 456 972 z "},"O":{"ha":668,"x_min":56,"x_max":613,"o":"m 533 972 l 611 817 l 611 156 l 533 0 l 133 0 l 56 156 l 56 817 l 133 972 l 533 972 m 456 156 l 456 817 l 211 817 l 211 156 l 456 156 z "},"P":{"ha":668,"x_min":56,"x_max":613,"o":"m 533 972 l 611 817 l 611 564 l 533 408 l 211 408 l 211 0 l 56 0 l 56 972 l 533 972 m 456 564 l 456 817 l 211 817 l 211 564 l 456 564 z "},"Q":{"ha":668,"x_min":56,"x_max":613,"o":"m 533 972 l 611 817 l 611 156 l 533 0 l 411 0 l 411 -78 l 256 -78 l 256 0 l 133 0 l 56 156 l 56 817 l 133 972 l 533 972 m 456 156 l 456 817 l 211 817 l 211 156 l 456 156 z "},"R":{"ha":668,"x_min":56,"x_max":613,"o":"m 611 564 l 533 408 l 386 408 l 611 0 l 433 0 l 211 403 l 211 0 l 56 0 l 56 972 l 533 972 l 611 817 l 611 564 m 456 564 l 456 817 l 211 817 l 211 564 l 456 564 z "},"S":{"ha":668,"x_min":56,"x_max":613,"o":"m 417 817 l 211 817 l 211 564 l 533 564 l 611 408 l 611 156 l 533 0 l 133 0 l 56 156 l 56 233 l 211 233 l 250 156 l 456 156 l 456 408 l 133 408 l 56 564 l 56 817 l 133 972 l 533 972 l 611 817 l 611 739 l 456 739 l 417 817 z "},"T":{"ha":668,"x_min":56,"x_max":613,"o":"m 56 972 l 611 972 l 611 817 l 411 817 l 411 0 l 256 0 l 256 817 l 56 817 l 56 972 z "},"U":{"ha":668,"x_min":56,"x_max":613,"o":"m 456 972 l 611 972 l 611 156 l 533 0 l 133 0 l 56 156 l 56 972 l 211 972 l 211 156 l 456 156 l 456 972 z "},"V":{"ha":653,"x_min":56,"x_max":597,"o":"m 438 972 l 596 972 l 406 0 l 246 0 l 56 972 l 214 972 l 326 401 l 438 972 z "},"W":{"ha":1029,"x_min":56,"x_max":974,"o":"m 815 972 l 974 972 l 783 0 l 624 0 l 514 556 l 406 0 l 246 0 l 56 972 l 214 972 l 326 401 l 438 972 l 592 972 l 703 401 l 815 972 z "},"X":{"ha":715,"x_min":54,"x_max":660,"o":"m 658 972 l 442 486 l 658 0 l 489 0 l 357 294 l 226 0 l 56 0 l 272 486 l 56 972 l 226 972 l 357 678 l 489 972 l 658 972 z "},"Y":{"ha":715,"x_min":54,"x_max":660,"o":"m 489 972 l 658 972 l 435 469 l 435 0 l 279 0 l 279 469 l 56 972 l 226 972 l 279 853 l 357 678 l 435 851 l 489 972 z "},"Z":{"ha":668,"x_min":56,"x_max":613,"o":"m 611 972 l 611 821 l 236 156 l 611 156 l 611 0 l 56 0 l 56 151 l 431 817 l 56 817 l 56 972 l 611 972 z "}," ":{"ha":357,"x_min":0,"x_max":0,"o":""},"­":{"ha":0,"x_min":0,"x_max":0,"o":""}}}
